<svg width="300" height="444" viewBox="0 0 300 444" fill="none" xmlns="http://www.w3.org/2000/svg">
<path fill-rule="evenodd" clip-rule="evenodd" d="M128 205L164.255 332.227L190.707 426H210L181.891 205H128Z" fill="#191847"/>
<path fill-rule="evenodd" clip-rule="evenodd" d="M118.304 205C117.466 270.574 114.606 306.34 113.726 312.298C112.845 318.256 99.5322 356.156 73.7864 426H93.7727C126.549 358.997 144.846 321.096 148.663 312.298C152.479 303.5 164.259 267.734 182 205H118.304Z" fill="#2F3676"/>
<path fill-rule="evenodd" clip-rule="evenodd" d="M72 444L73 423L94 423C108.936 433.5 133 440 133 440V444H95L82 442V444H72Z" fill="#191847"/>
<path fill-rule="evenodd" clip-rule="evenodd" d="M188 444L189 423L210 423C224.936 433.5 249 440 249 440V444H211L198 442V444H188Z" fill="#191847"/>
<path fill-rule="evenodd" clip-rule="evenodd" d="M161.935 75.2443C168.411 79.1475 174.774 81.0333 177.76 80.2635C185.25 78.333 185.938 50.9351 180.143 40.1339C174.349 29.3328 144.558 24.625 143.057 46.0255C142.536 53.4529 145.654 60.0814 150.262 65.4901L142 104H166L161.935 75.2443Z" fill="#B28B67"/>
<path fill-rule="evenodd" clip-rule="evenodd" d="M148.418 70.3075C145.406 56.9065 136.825 47.7714 138.135 41.7817C139.446 35.792 145.121 34.3321 145.121 34.3321C145.121 34.3321 148.057 22.4572 164.056 24.2304C180.055 26.0036 189.819 32.6478 185.602 47.2679C181.726 47.2679 177.046 45.866 170.576 48.2679C167.496 49.411 166.17 55.358 166.17 55.358H163.246C163.246 55.358 158.989 48.3006 154.851 50.1712C150.713 52.0418 152.97 59.2586 152.97 59.2586L151.529 70.3075H148.418Z" fill="#191847"/>
<path fill-rule="evenodd" clip-rule="evenodd" d="M221.348 113.69L186.638 132.7L199.456 146.458L224.677 123.365C237.963 119.704 244.039 117.025 242.904 115.329C241.948 113.9 240.405 113.949 238.985 113.995C237.878 114.031 236.845 114.064 236.22 113.394C234.794 111.863 237.515 106.51 240.315 101.542C243.114 96.5726 240.121 97.0052 238.409 97.7198C232.807 101.512 227.12 106.836 221.348 113.69ZM256.246 140.364L241 148.74L241.868 164.04C241.868 164.04 251.743 156.913 260.238 154.544C271.07 151.524 275.453 149.218 280.746 142.473C283.578 138.864 285.982 131.61 283.286 129.248C282.252 128.341 278.399 130.482 274.468 132.667C271.472 134.332 268.43 136.022 266.556 136.408C264.034 136.927 264.329 133.657 264.565 131.045C264.734 129.17 264.873 127.633 263.918 128.077C259.455 128.154 256.246 140.364 256.246 140.364Z" fill="#997659"/>
<path fill-rule="evenodd" clip-rule="evenodd" d="M169.734 128.465C181.892 128.337 198.104 125.769 215.403 114.789L222.196 129.939C210.264 141.78 193.486 151.51 178.816 151.098C167.255 150.773 161.347 136.789 169.734 128.465Z" fill="#2026A2"/>
<path fill-rule="evenodd" clip-rule="evenodd" d="M136.945 232.259C125.387 230.752 114.766 229.367 108.473 230.606C101.411 207.673 107.275 193.234 112.688 179.905C115.95 171.871 119.049 164.241 119.056 155.397C119.075 129.642 139.754 90 142.797 90H143.67H167.783H170.544C171.784 105.937 177.079 123.193 182.407 140.56C183.652 144.615 184.898 148.677 186.095 152.729C206.26 157.307 251.036 141.373 251.036 141.373C251.036 141.373 262.34 164.759 261.487 174.717C235.424 188.331 213.087 194.401 194.683 194.802C195.268 205.721 193.939 216.112 189.474 225.606C183.491 238.327 158.576 235.079 136.945 232.259Z" fill="#1F28CF"/>
</svg>
